<svg width="64" height="64" viewBox="0 0 64 64" fill="none" xmlns="http://www.w3.org/2000/svg">
  <defs>
    <linearGradient id="logoGradient" x1="0%" y1="0%" x2="100%" y2="100%">
      <stop offset="0%" style="stop-color:#60A5FA;stop-opacity:1" />
      <stop offset="50%" style="stop-color:#8B5CF6;stop-opacity:1" />
      <stop offset="100%" style="stop-color:#EC4899;stop-opacity:1" />
    </linearGradient>
  </defs>
  <path d="M32 4L52 16L52 32L52 48L32 60L12 48L12 32L12 16L32 4Z" fill="url(#logoGradient)" stroke="url(#logoGradient)" stroke-width="2"/>
  <path d="M20 20L24 22L28 20L32 22L36 20L40 22L44 20M20 28L24 30L28 28L32 30L36 28L40 30L44 28M20 36L24 38L28 36L32 38L36 36L40 38L44 36M20 44L24 46L28 44L32 46L36 44L40 46L44 44" stroke="white" stroke-width="1.5" stroke-linecap="round"/>
</svg> 